# xmcd
#
# Track frame offsets:
#	150
#	16620
#	51690
#	86764
#	130568
#	155015
#	171278
#	183016
#	196508
#	218481
#	233013
#	247714
#	264651
#	277087
#
# Disc length: 3922 seconds
#
# Revision: 1
# Processed by: cddbd v1.5.2PL0 Copyright (c) Steve Scherf et al.
# Submitted via: EZCDAudioConverter 7.1.2.1
#
DISCID=b10f500e
DTITLE=mgrr Brass Band - Jahreskonzert 2015
DYEAR=2015
DGENRE=Brass Band
TTITLE0=Prismatic Light
TTITLE1=Mountain Song - from a Pittsburgh Symphony
TTITLE2=Fantasie Originale
TTITLE3=Fire in the Blood
TTITLE4=Ready - Steady - Brass
TTITLE5=Finale from Wilhelm Tell
TTITLE6=Bicycle Race
TTITLE7=Trumpet Blues and Cantabile
TTITLE8=The Old Chalet
TTITLE9=Mission Impossible
TTITLE10=Berne Patrol
TTITLE11=Pound the Streets
TTITLE12=The Champions March
TTITLE13=Highland Cathedral
EXTD=
EXTT0=
EXTT1=
EXTT2=
EXTT3=
EXTT4=
EXTT5=
EXTT6=
EXTT7=
EXTT8=
EXTT9=
EXTT10=
EXTT11=
EXTT12=
EXTT13=
PLAYORDER=
